<?xml version="1.0" encoding="UTF-8" standalone="no"?>
<svg xmlns="http://www.w3.org/2000/svg" height="1600" viewBox="0 0 1600 1600" width="1600">
 <rect ry="80" height="1600" width="1600" y="0" x="0" fill="#843c0c"/>
 <g fill="#fff">
  <path d="m800 180 c-80 0 -140 60 -140 140 l0 50 c-50 20 -100 50 -140 80 l-40 -25 c-70 -40 -160 -20 -200 50 l-70 120 c-40 70 -20 160 50 200 l40 25 c-10 30 -10 60 -10 90 s0 60 10 90 l-40 25 c-70 40 -90 130 -50 200 l70 120 c40 70 130 90 200 50 l40 -25 c40 30 90 60 140 80 l0 50 c0 80 60 140 140 140 l140 0 c80 0 140 -60 140 -140 l0 -50 c50 -20 100 -50 140 -80 l40 25 c70 40 160 20 200 -50 l70 -120 c40 -70 20 -160 -50 -200 l-40 -25 c10 -30 10 -60 10 -90 s0 -60 -10 -90 l40 -25 c70 -40 90 -130 50 -200 l-70 -120 c-40 -70 -130 -90 -200 -50 l-40 25 c-40 -30 -90 -60 -140 -80 l0 -50 c0 -80 -60 -140 -140 -140 z m0 450 c200 0 360 160 360 360 s-160 360 -360 360 s-360 -160 -360 -360 s160 -360 360 -360 z"/>
  <circle cx="800" cy="990" r="200"/>
 </g>
</svg>
